<mxfile host="app.diagrams.net" modified="2023-10-15T08:27:50.724Z" agent="Mozilla/5.0 (Windows NT 10.0; Win64; x64) AppleWebKit/537.36 (KHTML, like Gecko) Chrome/117.0.0.0 Safari/537.36" etag="zGQUcvY5DfA8wscBwPHy" version="22.0.4" type="device">
  <diagram name="Страница — 1" id="x1u1bQcIze2VoIYp0Ffs">
    <mxGraphModel dx="1194" dy="728" grid="1" gridSize="10" guides="1" tooltips="1" connect="1" arrows="1" fold="1" page="1" pageScale="1" pageWidth="827" pageHeight="1169" math="0" shadow="0">
      <root>
        <mxCell id="0" />
        <mxCell id="1" parent="0" />
        <mxCell id="LrthZd9Z88FJatbeLyov-1" value="&lt;span style=&quot;white-space: pre;&quot;&gt;&#x9;&lt;/span&gt;&lt;span style=&quot;white-space: pre;&quot;&gt;&#x9;&lt;/span&gt;&amp;lt;&amp;lt;Смартфон&amp;gt;&amp;gt;" style="verticalAlign=top;align=left;spacingTop=8;spacingLeft=2;spacingRight=12;shape=cube;size=10;direction=south;fontStyle=4;html=1;whiteSpace=wrap;" parent="1" vertex="1">
          <mxGeometry x="120" y="235" width="200" height="170" as="geometry" />
        </mxCell>
        <mxCell id="LrthZd9Z88FJatbeLyov-2" value="&lt;div style=&quot;text-align: center;&quot;&gt;&lt;span style=&quot;background-color: initial;&quot;&gt;&lt;span style=&quot;white-space: pre;&quot;&gt;&#x9;&lt;/span&gt;&amp;lt;&amp;lt;OC Android&amp;gt;&amp;gt;&lt;/span&gt;&lt;/div&gt;" style="verticalAlign=top;align=left;spacingTop=8;spacingLeft=2;spacingRight=12;shape=cube;size=10;direction=south;fontStyle=4;html=1;whiteSpace=wrap;" parent="1" vertex="1">
          <mxGeometry x="130" y="275" width="170" height="120" as="geometry" />
        </mxCell>
        <mxCell id="LrthZd9Z88FJatbeLyov-3" value="*.apk&lt;br&gt;(Android Studio)" style="shape=module;align=left;spacingLeft=20;align=center;verticalAlign=top;whiteSpace=wrap;html=1;" parent="1" vertex="1">
          <mxGeometry x="170" y="325" width="100" height="50" as="geometry" />
        </mxCell>
        <mxCell id="LrthZd9Z88FJatbeLyov-4" value="" style="shape=umlBoundary;whiteSpace=wrap;html=1;direction=south;" parent="1" vertex="1">
          <mxGeometry x="160" y="405" width="30" height="40" as="geometry" />
        </mxCell>
        <mxCell id="LrthZd9Z88FJatbeLyov-5" value="Сенсорний &lt;br&gt;екран" style="text;html=1;align=center;verticalAlign=middle;resizable=0;points=[];autosize=1;strokeColor=none;fillColor=none;" parent="1" vertex="1">
          <mxGeometry x="135" y="440" width="80" height="40" as="geometry" />
        </mxCell>
        <mxCell id="LrthZd9Z88FJatbeLyov-6" value="" style="shape=umlBoundary;whiteSpace=wrap;html=1;direction=south;" parent="1" vertex="1">
          <mxGeometry x="240" y="405" width="30" height="40" as="geometry" />
        </mxCell>
        <mxCell id="LrthZd9Z88FJatbeLyov-7" value="Мікрофон" style="text;html=1;align=center;verticalAlign=middle;resizable=0;points=[];autosize=1;strokeColor=none;fillColor=none;" parent="1" vertex="1">
          <mxGeometry x="215" y="445" width="80" height="30" as="geometry" />
        </mxCell>
        <mxCell id="ZW3FnqQ_oUwEvdyeQfdk-2" value="&lt;span style=&quot;white-space: pre;&quot;&gt;&#x9;&lt;/span&gt;&lt;span style=&quot;white-space: pre;&quot;&gt;&#x9;&lt;/span&gt;&lt;span style=&quot;white-space: pre;&quot;&gt;&#x9;&lt;/span&gt;&amp;lt;&amp;lt;сервер&amp;gt;&amp;gt;" style="verticalAlign=top;align=left;spacingTop=8;spacingLeft=2;spacingRight=12;shape=cube;size=10;direction=south;fontStyle=4;html=1;whiteSpace=wrap;" parent="1" vertex="1">
          <mxGeometry x="440" y="200" width="260" height="200" as="geometry" />
        </mxCell>
        <mxCell id="ZW3FnqQ_oUwEvdyeQfdk-3" value="&lt;div style=&quot;text-align: center;&quot;&gt;&lt;span style=&quot;background-color: initial;&quot;&gt;&lt;span style=&quot;white-space: pre;&quot;&gt;&#x9;&lt;span style=&quot;white-space: pre;&quot;&gt;&#x9;&lt;/span&gt;&lt;span style=&quot;white-space: pre;&quot;&gt;&#x9;&lt;/span&gt;&lt;/span&gt;&amp;lt;&amp;lt;GCP&amp;gt;&amp;gt;&lt;/span&gt;&lt;/div&gt;" style="verticalAlign=top;align=left;spacingTop=8;spacingLeft=2;spacingRight=12;shape=cube;size=10;direction=south;fontStyle=4;html=1;whiteSpace=wrap;" parent="1" vertex="1">
          <mxGeometry x="460" y="235" width="220" height="155" as="geometry" />
        </mxCell>
        <mxCell id="ZW3FnqQ_oUwEvdyeQfdk-4" value="&lt;span style=&quot;white-space: pre;&quot;&gt;&#x9;&lt;/span&gt;&amp;lt;&amp;lt;Room Database&amp;gt;&amp;gt;" style="verticalAlign=top;align=left;spacingTop=8;spacingLeft=2;spacingRight=12;shape=cube;size=10;direction=south;fontStyle=4;html=1;whiteSpace=wrap;" parent="1" vertex="1">
          <mxGeometry x="480" y="270" width="180" height="110" as="geometry" />
        </mxCell>
        <mxCell id="ZW3FnqQ_oUwEvdyeQfdk-5" value="&lt;br&gt;Relation&lt;br&gt;Dtabase" style="strokeWidth=2;html=1;shape=mxgraph.flowchart.database;whiteSpace=wrap;" parent="1" vertex="1">
          <mxGeometry x="522.5" y="320" width="95" height="50" as="geometry" />
        </mxCell>
        <mxCell id="ZW3FnqQ_oUwEvdyeQfdk-6" value="" style="endArrow=none;dashed=1;html=1;dashPattern=1 3;strokeWidth=2;rounded=0;" parent="1" edge="1">
          <mxGeometry width="50" height="50" relative="1" as="geometry">
            <mxPoint x="380" y="480" as="sourcePoint" />
            <mxPoint x="380" y="160" as="targetPoint" />
          </mxGeometry>
        </mxCell>
        <mxCell id="ZW3FnqQ_oUwEvdyeQfdk-10" value="" style="endArrow=none;html=1;rounded=0;exitX=0.512;exitY=-0.005;exitDx=0;exitDy=0;exitPerimeter=0;entryX=0.605;entryY=0.996;entryDx=0;entryDy=0;entryPerimeter=0;" parent="1" source="LrthZd9Z88FJatbeLyov-1" target="ZW3FnqQ_oUwEvdyeQfdk-2" edge="1">
          <mxGeometry width="50" height="50" relative="1" as="geometry">
            <mxPoint x="390" y="400" as="sourcePoint" />
            <mxPoint x="440" y="350" as="targetPoint" />
          </mxGeometry>
        </mxCell>
      </root>
    </mxGraphModel>
  </diagram>
</mxfile>
